<svg width="65" height="64" viewBox="0 0 65 64" fill="none" xmlns="http://www.w3.org/2000/svg">
<path d="M35.2082 13.3333C35.2082 11.8606 33.9957 10.6667 32.4999 10.6667C31.0041 10.6667 29.7916 11.8606 29.7916 13.3333V29.3333H13.5416C12.0458 29.3333 10.8333 30.5272 10.8333 32C10.8333 33.4728 12.0458 34.6667 13.5416 34.6667H29.7916V50.6667C29.7916 52.1394 31.0041 53.3333 32.4999 53.3333C33.9957 53.3333 35.2082 52.1394 35.2082 50.6667V34.6667H51.4582C52.954 34.6667 54.1666 33.4728 54.1666 32C54.1666 30.5272 52.954 29.3333 51.4582 29.3333H35.2082V13.3333Z" fill="#1E202C"/>
</svg>
