<svg width="32" height="32" viewBox="0 0 32 32" fill="none" xmlns="http://www.w3.org/2000/svg">
<path fill-rule="evenodd" clip-rule="evenodd" d="M15.0572 7.39046C15.5778 6.86976 16.4221 6.86976 16.9428 7.39046L24.2761 14.7238C24.7968 15.2445 24.7968 16.0887 24.2761 16.6094L16.9428 23.9427C16.4221 24.4634 15.5778 24.4634 15.0571 23.9427C14.5364 23.422 14.5364 22.5778 15.0571 22.0571L21.4477 15.6666L15.0571 9.27608C14.5365 8.75538 14.5365 7.91116 15.0572 7.39046Z" fill="#1E202C"/>
<path fill-rule="evenodd" clip-rule="evenodd" d="M7.39052 7.39046C7.91122 6.86976 8.75544 6.86976 9.27614 7.39046L16.6095 14.7238C17.1302 15.2445 17.1302 16.0887 16.6095 16.6094L9.27614 23.9427C8.75544 24.4634 7.91122 24.4634 7.39052 23.9427C6.86982 23.422 6.86982 22.5778 7.39052 22.0571L13.781 15.6666L7.39052 9.27608C6.86982 8.75538 6.86983 7.91116 7.39052 7.39046Z" fill="#1E202C"/>
</svg>
